<?xml version="1.0" encoding="UTF-8"?><svg id="Layer_1" xmlns="http://www.w3.org/2000/svg" viewBox="0 0 500 500"><defs><style>.cls-1{fill:#d69919;}</style></defs><path class="cls-1" d="m14.9,142.51c18.75,35.12,61.4,59.94,101.24,51.72,6.41-4.68-.35-10.78-2.74-15.67-6.02-16.36-3.17-34.96.69-51.57,7.38,8.02,15.08,15.93,22.72,23.79-14.63,24.88,9.24,104.45,30.95,121.83-10.82,10.68-12.99,10.03-16.75,25.58-4.94,15.76-9.38,32.91-14.22,48.64-2.31,7.03,5.71,12.47,11.89,9.01,8.67-2.77,17.16-6.08,25.81-8.91,12.62-5.43,30.44-5.83,39.07-17.46,2.17,9.51,36.01,33.77,44.92,28.82,13.71-8.44,39.99-24.44,46.44-38.92,19.15,15.27,41.03,55.84,68.21,31.78,24.76-27.38-18.81-50.28-34.73-69.37,22-11.1,41.48-87.34,32.71-109.27,11.09-12.39,24.35-23.35,31.61-38.58,7.05,6.06,14.64,18.15,25.28,12.33,6.48-6.06,17.88-13.92,15.84-23.94-4.49-10.03-15.37-16.52-22.68-24.45,14.11-5.63,24.11-17.67,35.15-27.66,14.51-15.27,27.51-23.63,6.33-41.41-9.55-11.95-22.1-9.35-30.56,2.25-12.74,13.88-27.38,26.55-35.51,43.87-7.74-5.51-15.97-11.93-24.35-15.81,0,.42.49.63.36,1.09-.48.25-1.29-.02-.89.76-.77-.38-1.29-1.06-2.2-1.13,15.27,23.8,38.64,43.2,57.62,64.87-1.11,1.03-4.07,3.78-5.04,4.86-20.44-19.34-39.79-41.57-61.73-59.11,2.21-3.48,5.98-6.01,7.57-9.74-.39-.74.27-.64.54-1.35.26-.61.54-.21.9-.39.42-.41.8-.33,1.25-.22-.66-7.64-7.3-4.44-11.6-1.67-18.92,8.98-15.09,19.6-1.66,31.85-17.43,8.66-30.16,24.58-43.68,38.28-11.49-10.56-26.58-16.14-39.22-25.28-18.26-11.01-16.59-19.87-34.7-1.44-15.58,13.48-35.74,19.76-51.65,32.74-18.94-18.9-39.03-37.75-59.05-55.37-12.26-8.56-31.51-37.08-46.97-24.6.96-.19,2.44-1.01,3.41-.83-.71,1.02-2.51,1.71.04,1.2-2.15.93-4.42,2.17-5.64,4.24.02-.02-.05.03-.14.1,16.83-10.14,24.69,9.73,35.79,18.46,80.7,84.46,163.91,167.53,245.82,250.9,7.66,7.61-3.58,19.85-11.87,12.66C262.3,252.57,173.74,163.59,83.53,79.33c-7.93-4.27-10.03-15.2-4.96-22.4-11.14,7.43-9.85,19.86-.91,28.61-22.59,3.24-44.13,8.07-64.29-5.05-20.13-1.27-5.14,52.77,1.53,62.02h0ZM457,46.44c-.03-.05-.05-.11-.08-.17.38.5.09.22.08.17Zm.14-2.11s.03,0-.07.09c.02-.03.04-.06.07-.09Zm-8.24-8.2l.06-.05c-.13.29-.44.54-.74.66.16-.14.52-.46.68-.6h0Zm-37.92,52.2c-2.7-2.89-7.18-6.7-10.07-9.52,16.42-12.15,31.18-27.64,46.66-41.48,2.82,2.71,5.77,5.37,8.6,8.03-14.58,14.76-29.32,29.63-41.17,46.67-1.33-1.25-2.61-2.54-4.01-3.69Zm18.78,39.17c-.11-.1-.2-.22-.3-.33.02.03.46.47.3.33Zm-4.92,4.81l-.07-.07c.1.07.3.28.07.07Zm-5.41-.09s.06-.07.08-.08c-.02.02-.09.09-.11.11l.03-.03Zm-59.87-62.37s.01.02.02.02l-.06-.05.04.03Zm-.46,1.9l.26-.26c-.04.12-.5.53-.26.26Zm-112.43,119.12c-17.43-17.25-35.73-35.16-53.17-52.34,22.1-4.82,43.45-15.63,61.48-29.4,15.37,12.01,32.3,22.41,51.41,26.12-17.32,20.87-40.44,37.72-53.02,62.14l-6.7-6.52Zm17.54,17.2c-2.06-2.05-4.13-4.11-6.19-6.15,37.57-31.4,75.82-66.66,106.12-105.79,3.96,4.15,8.72,9.32,12.81,13.34-23.63,12.97-39.84,36.19-58.7,54.95-14.62,17.79-34.35,31.95-44.51,53l-9.52-9.35Zm14.24,13.98c37.38-31.4,75.63-66.45,105.79-105.52,2.92,2.91,9.81,9.49,12.92,12.33-37.21,32.68-75.28,66.8-105.64,106.2-.78-.77-12.64-12.62-13.06-13.01h0Zm20.97,20.89l-1.37-1.37c25.68-12.83,42.95-38.14,62.8-58.24-3.82,32.22-18.07,61.61-29.63,91.28l-31.8-31.67Zm63.57,95.4s0,0,0,0h0Zm-65.67-26.36c.31.3,1.22,1.19,1.53,1.49-14.27,9.7-28.78,19.4-43.96,27.87-11.85-6.04-22.27-13.78-34.41-19.03,14.34-14.56,28.46-29.8,39.59-47.11,5.46,5.5,31.22,30.83,37.25,36.78Zm-41.35-40.85c-13.36,11.69-27.33,23.8-40.15,36.52-20.73,21.02-15.42,15.21-43.04,23.57,24.46-23.16,50.8-45.43,70.03-73.13,1.87,1.85,11.53,11.42,13.16,13.05h0Zm-20.71-20.54c-29.55,17.77-49.14,48.72-73.71,72.52,2.67-8.85,5.94-19.8,8.77-28.64,18.36-18,35.86-37.16,51.43-57.36,3.14,3.2,10.26,10.27,13.51,13.48h0Zm-67.47-68.32c14.98,15.58,33.45,34.08,48.73,49.57-16.13,9.24-29.46,22.2-42.7,35.07-15.04-33.18-22.85-68.9-26.24-105.02,6.64,6.89,13.46,13.61,20.22,20.38h0ZM27.5,104.43c16.78,2.06,40.75-3.84,53.07-15.47,9.52,11.32,19.74,22.33,29.37,33.52-9.09,17.77-16.7,39.01-9.72,59-40.49-2.81-76.69-37.61-79.03-78.48,2.08.66,4.19,1.15,6.31,1.42Zm52.23-46.47c-.13.1-.32.25-.44.35-.1.06-.69.47.44-.35Zm-.44.35s.02-.01-.03.03c.08-.05.15-.1.22-.15-.37.27-.34.24-.19.12Zm417.47,355.01c-.2.12-.27.85-.53,1.08-4.02,5.52-13.79,5.96-20.88,5.78-55.52.81-137.07-14.11-184.82,13.97-29.95,20.7-23,48.29-38.07,44.49-40.56-95.33-150.06-45.04-231.9-60.29-1-.68-2.54-.39-3.6-1.27-.44-.47-1.45.83-1.57-.07-.22-.83-1.07-.22-1.6-.5-.52-.44-1.47-1.92-.37-2.39-.26-.48.25-1.26-.23-1.68,5.83-9.34,18.11-6.61,27.39-8.32-.07-55.48-7.42-39.06,64.62-40.9,52.91,1.85,105.35-8.03,149.67,27.91,57-43.55,139.97-21.31,207.48-21.72-3.4.39-6.72.28-10.14.45,3.23.3-.03.41-1.16.86.68.32,2.81.17,3.82.4-63.06,9.33-138.25-9.66-192.11,31.03-3.09,2.81-7.87,6.79-11.88,3.25-52.61-44.07-131.03-21.88-193.94-26.53.27,7.99.06,16,.17,23.99,66.08,9,156.86-25.06,197.73,45.51,42.14-71.91,134.82-35.29,201.8-43.56.51-11.69,3.4-22.54,4.61-34.3,1.65,11.34,2.4,22.38,3.47,33.65,10.79-.7,29.27-5.75,32.07,9.17h0Zm-113.1-169.95c.63.48,1.35.9,2.08,1.2-1.19-1.09.24-.42.87-.83-.05-.46-.81-.65-.9-1,14.06,1.14,26.85,11.6,32.54,24.36,4.09-9.44,10.28-18.16,18.2-24.86-7.53-5.29-13.69-12.59-17.95-20.68-5.89,10.59-17.28,20.73-29.89,20.43-1.32-1.28-3.77-1.01-5.28-.12.34-.49.88-1.13.99-1.88.48-.89,2.22-1.35,2.73-2.25.91-1.53,3.01-1.93,3.64-3.78,12.52-9.34,17.31-25.59,19.42-40.53h.19c.38-11.98,16.9-11.87,17.22,0h.2c1.83,16.39,11.29,34.53,27.68,40.1,7.99,2.33,7.82,14.36,0,16.69-34.58,14.49-22.11,50.67-37.64,48.38-11.41-.9-3-29.48-26.34-48.24-3.28-2.4-8.92-3.96-9.65-8.49.72.43,1.23.98,1.89,1.49h0Zm-331.59,42.79c.61.46,1.31.87,2.02,1.16-1.16-1.07.27-.42.88-.83-.04-.45-.78-.62-.86-.96,13.78.71,26.77,10.15,32.61,22.6,4.02-8.78,10.08-16.86,17.67-22.94-7.21-4.92-13.17-11.52-17.41-19.13-6.24,10.36-19.49,21.87-32.04,18.06-1.41-.14-1.94-.02-3.15.61,14.1-13.16,24.69-24.33,26.78-45.14h.16c.44-12.06,16.9-11.93,17.29,0h.15c1.99,15.58,11.92,31.98,27.54,36.75,8.69,2.42,7.78,15.25-.76,17.08-33.52,13.47-21.54,47.08-36.82,44.76-10.63-.71-4.02-29.57-26.35-45.3-3.29-2.22-8.89-3.66-9.54-8.16.71.41,1.19.94,1.84,1.43h0Z"/></svg>